#N canvas -8 -8 2560 1357 10;
#X obj 109 484 Synth_Patch, f 130;
#X msg 10 27 \; pd dsp \$1;
#X obj 10 9 tgl 15 0 empty empty empty 17 7 0 10 -262144 -1 -1 0 1
;
#X text 32 8 dsp toggle;
#X obj 861 294 r attack1 @hv_param 10 1000 10;
#X obj 875 314 r decay1 @hv_param 10 1000 150;
#X obj 890 333 r sustain1 @hv_param 0 1 0.5;
#X obj 905 353 r release1 @hv_param 10 1000 150;
#X obj 917 465 r vol1 @hv_param 0 1 0.1;
#X obj 109 503 dac~;
#X obj 168 164 r seq1_0 @hv_param 0 11 0;
#X obj 182 183 r seq1_1 @hv_param 0 11 4;
#X obj 197 203 r seq1_2 @hv_param 0 11 7;
#X obj 212 223 r seq1_3 @hv_param 0 11 11;
#X obj 227 242 r seq1_4 @hv_param 0 11 7;
#X obj 241 262 r seq1_5 @hv_param 0 11 4;
#X obj 256 281 r seq1_6 @hv_param 0 11 0;
#X obj 271 301 r seq1_7 @hv_param 0 11 4;
#X obj 123 113 r squareMix1 @hv_param 0 1 1;
#X obj 109 94 r oscMix1 @hv_param 0 1 0;
#X obj 1029 49 r metro @heavy_param 100 1000 400;
#X obj 1624 667 * 2;
#X text 1614 651 for bgm;
#X obj 630 213 r freqMod1 @hv_param 0 1000 0;
#X obj 655 233 r modFactor1 @hv_param 0 1000 0;
#X obj 556 389 r lowPass1 @hv_param 0 100 100;
#X obj 577 409 r highPass1 @hv_param 0 2000 0;
#X text 160 75 oscillators;
#X text 215 144 sequencer setup;
#X text 621 370 filters;
#X text 703 192 FM;
#X text 971 445 volume;
#X text 927 274 ADSR;
#X text 1117 30 tempo;
#X obj 109 919 Synth_Patch, f 130;
#X obj 109 938 dac~;
#X text 160 510 oscillators;
#X text 215 579 sequencer setup;
#X text 621 805 filters;
#X text 703 627 FM;
#X text 971 880 volume;
#X text 927 709 ADSR;
#X obj 1211 919 Synth_Patch, f 130;
#X obj 1211 938 dac~;
#X text 1262 510 oscillators;
#X text 1317 579 sequencer setup;
#X text 1723 805 filters;
#X text 1805 627 FM;
#X text 2073 880 volume;
#X text 2029 709 ADSR;
#X text 1627 600 BGM;
#X obj 1211 484 Synth_Patch, f 130;
#X obj 1211 503 dac~;
#X text 1262 75 oscillators;
#X text 1317 144 sequencer setup;
#X text 1723 370 filters;
#X text 1805 192 FM;
#X text 2073 445 volume;
#X text 2029 274 ADSR;
#X obj 1211 94 r oscMix2 @hv_param 0 1 0;
#X obj 1225 113 r squareMix2 @hv_param 0 1 1;
#X obj 1270 164 r seq2_0 @hv_param 0 11 0;
#X obj 1284 183 r seq2_1 @hv_param 0 11 4;
#X obj 1299 203 r seq2_2 @hv_param 0 11 7;
#X obj 1314 223 r seq2_3 @hv_param 0 11 11;
#X obj 1329 242 r seq2_4 @hv_param 0 11 7;
#X obj 1343 262 r seq2_5 @hv_param 0 11 4;
#X obj 1358 281 r seq2_6 @hv_param 0 11 0;
#X obj 1373 301 r seq2_7 @hv_param 0 11 4;
#X obj 1395 329 r midiOffset2 @hv_param 40 69 50;
#X obj 293 329 r midiOffset1 @hv_param 40 69 50;
#X obj 1658 389 r lowPass2 @hv_param 0 100 100;
#X obj 1679 409 r highPass2 @hv_param 0 2000 0;
#X obj 1732 213 r freqMod2 @hv_param 0 1000 0;
#X obj 1757 233 r modFactor2 @hv_param 0 1000 0;
#X obj 1963 294 r attack2 @hv_param 10 1000 10;
#X obj 1977 314 r decay2 @hv_param 10 1000 150;
#X obj 1992 333 r sustain2 @hv_param 0 1 0.5;
#X obj 2007 353 r release2 @hv_param 10 1000 150;
#X obj 2019 465 r vol2 @hv_param 0 1 0.1;
#X obj 109 529 r oscMix3 @hv_param 0 1 0;
#X obj 123 548 r squareMix3 @hv_param 0 1 1;
#X obj 168 599 r seq3_0 @hv_param 0 11 0;
#X obj 182 618 r seq3_1 @hv_param 0 11 4;
#X obj 197 638 r seq3_2 @hv_param 0 11 7;
#X obj 212 658 r seq3_3 @hv_param 0 11 11;
#X obj 227 677 r seq3_4 @hv_param 0 11 7;
#X obj 241 697 r seq3_5 @hv_param 0 11 4;
#X obj 256 716 r seq3_6 @hv_param 0 11 0;
#X obj 271 736 r seq3_7 @hv_param 0 11 4;
#X obj 293 764 r midiOffset3 @hv_param 40 69 50;
#X obj 630 648 r freqMod3 @hv_param 0 1000 0;
#X obj 655 668 r modFactor3 @hv_param 0 1000 0;
#X obj 556 824 r lowPass3 @hv_param 0 100 100;
#X obj 577 844 r highPass3 @hv_param 0 2000 0;
#X obj 861 729 r attack3 @hv_param 10 1000 10;
#X obj 875 749 r decay3 @hv_param 10 1000 150;
#X obj 890 768 r sustain3 @hv_param 0 1 0.5;
#X obj 905 788 r release3 @hv_param 10 1000 150;
#X obj 917 900 r vol3 @hv_param 0 1 0.1;
#X obj 1211 529 r oscMix4 @hv_param 0 1 0;
#X obj 1225 548 r squareMix4 @hv_param 0 1 1;
#X obj 1270 599 r seq4_0 @hv_param 0 11 0;
#X obj 1284 618 r seq4_1 @hv_param 0 11 4;
#X obj 1299 638 r seq4_2 @hv_param 0 11 7;
#X obj 1314 658 r seq4_3 @hv_param 0 11 11;
#X obj 1329 677 r seq4_4 @hv_param 0 11 7;
#X obj 1343 697 r seq4_5 @hv_param 0 11 4;
#X obj 1358 716 r seq4_6 @hv_param 0 11 0;
#X obj 1373 736 r seq4_7 @hv_param 0 11 4;
#X obj 1395 764 r midiOffset4 @hv_param 40 69 50;
#X obj 1732 648 r freqMod4 @hv_param 0 1000 0;
#X obj 1757 668 r modFactor4 @hv_param 0 1000 0;
#X obj 1658 824 r lowPass4 @hv_param 0 100 100;
#X obj 1679 844 r highPass4 @hv_param 0 2000 0;
#X obj 1963 729 r attack4 @hv_param 10 1000 10;
#X obj 1977 749 r decay4 @hv_param 10 1000 150;
#X obj 1992 769 r sustain4 @hv_param 0 1 0.5;
#X obj 2007 788 r release4 @hv_param 10 1000 150;
#X obj 2019 900 r vol4 @hv_param 0 1 0.1;
#X connect 0 0 9 0;
#X connect 0 0 9 1;
#X connect 2 0 1 0;
#X connect 4 0 0 16;
#X connect 5 0 0 17;
#X connect 6 0 0 18;
#X connect 7 0 0 19;
#X connect 8 0 0 20;
#X connect 10 0 0 2;
#X connect 11 0 0 3;
#X connect 12 0 0 4;
#X connect 13 0 0 5;
#X connect 14 0 0 6;
#X connect 15 0 0 7;
#X connect 16 0 0 8;
#X connect 17 0 0 9;
#X connect 18 0 0 1;
#X connect 19 0 0 0;
#X connect 20 0 0 11;
#X connect 20 0 21 0;
#X connect 20 0 34 11;
#X connect 20 0 51 11;
#X connect 21 0 42 11;
#X connect 23 0 0 14;
#X connect 24 0 0 15;
#X connect 25 0 0 12;
#X connect 26 0 0 13;
#X connect 34 0 35 0;
#X connect 34 0 35 1;
#X connect 42 0 43 0;
#X connect 42 0 43 1;
#X connect 51 0 52 0;
#X connect 51 0 52 1;
#X connect 59 0 51 0;
#X connect 60 0 51 1;
#X connect 61 0 51 2;
#X connect 62 0 51 3;
#X connect 63 0 51 4;
#X connect 64 0 51 5;
#X connect 65 0 51 6;
#X connect 66 0 51 7;
#X connect 67 0 51 8;
#X connect 68 0 51 9;
#X connect 69 0 51 10;
#X connect 70 0 0 10;
#X connect 71 0 51 12;
#X connect 72 0 51 13;
#X connect 73 0 51 14;
#X connect 74 0 51 15;
#X connect 75 0 51 16;
#X connect 76 0 51 17;
#X connect 77 0 51 18;
#X connect 78 0 51 19;
#X connect 79 0 51 20;
#X connect 80 0 34 0;
#X connect 81 0 34 1;
#X connect 82 0 34 2;
#X connect 83 0 34 3;
#X connect 84 0 34 4;
#X connect 85 0 34 5;
#X connect 86 0 34 6;
#X connect 87 0 34 7;
#X connect 88 0 34 8;
#X connect 89 0 34 9;
#X connect 90 0 34 10;
#X connect 91 0 34 14;
#X connect 92 0 34 15;
#X connect 93 0 34 12;
#X connect 94 0 34 13;
#X connect 95 0 34 16;
#X connect 96 0 34 17;
#X connect 97 0 34 18;
#X connect 98 0 34 19;
#X connect 99 0 34 20;
#X connect 100 0 42 0;
#X connect 101 0 42 1;
#X connect 102 0 42 2;
#X connect 103 0 42 3;
#X connect 104 0 42 4;
#X connect 105 0 42 5;
#X connect 106 0 42 6;
#X connect 107 0 42 7;
#X connect 108 0 42 8;
#X connect 109 0 42 9;
#X connect 110 0 42 10;
#X connect 111 0 42 14;
#X connect 112 0 42 15;
#X connect 113 0 42 12;
#X connect 114 0 42 13;
#X connect 115 0 42 16;
#X connect 116 0 42 17;
#X connect 117 0 42 18;
#X connect 118 0 42 19;
#X connect 119 0 42 20;
