#N canvas -8 -8 2560 1357 10;
#X obj 109 484 Synth_Patch, f 30;
#X msg 10 27 \; pd dsp \$1;
#X obj 10 9 tgl 15 0 empty empty empty 17 7 0 10 -262144 -1 -1 0 1
;
#X text 32 8 dsp toggle;
#X obj 227 386 r attack1 @hv_param 10 1000 10;
#X obj 241 406 r decay1 @hv_param 10 1000 150;
#X obj 256 425 r sustain1 @hv_param 0 1 0.5;
#X obj 271 445 r release1 @hv_param 10 1000 150;
#X obj 1106 1636 r volume @hv_param 0 1 0;
#X obj 1116 1646 r volume @hv_param 0 1 0;
#X obj 1126 1656 r volume @hv_param 0 1 0;
#X obj 1136 1666 r volume @hv_param 0 1 0;
#X obj 286 464 r vol1 @hv_param 0 1 0.1;
#X obj 109 503 dac~;
#X obj 109 230 r seq1_0 @hv_param 0 11 0;
#X obj 123 249 r seq1_1 @hv_param 0 11 4;
#X obj 138 269 r seq1_2 @hv_param 0 11 7;
#X obj 153 289 r seq1_3 @hv_param 0 11 11;
#X obj 168 308 r seq1_4 @hv_param 0 11 7;
#X obj 182 328 r seq1_5 @hv_param 0 11 4;
#X obj 197 347 r seq1_6 @hv_param 0 11 0;
#X obj 212 367 r seq1_7 @hv_param 0 11 4;
#X connect 0 0 13 0;
#X connect 0 0 13 1;
#X connect 2 0 1 0;
#X connect 4 0 0 8;
#X connect 5 0 0 9;
#X connect 6 0 0 10;
#X connect 7 0 0 11;
#X connect 12 0 0 12;
#X connect 14 0 0 0;
#X connect 15 0 0 1;
#X connect 16 0 0 2;
#X connect 17 0 0 3;
#X connect 18 0 0 4;
#X connect 19 0 0 5;
#X connect 20 0 0 6;
#X connect 21 0 0 7;
