#N canvas -8 -8 1920 997 10;
#X msg 4 19 \; pd dsp \$1;
#X obj 4 1 tgl 15 0 empty empty empty 17 7 0 10 -262144 -1 -1 1 1;
#X text 26 0 dsp toggle;
#X floatatom 208 181 5 0 0 0 - - -;
#X obj 208 237 *~;
#X floatatom 223 219 5 0 0 0 - - -;
#X obj 193 257 +~;
#X obj 193 276 osc~;
#X obj 85 632 tabwrite~ out;
#X obj 85 595 tgl 15 0 empty empty empty 17 7 0 10 -262144 -1 -1 1
1;
#X obj 85 612 metro 100;
#N canvas 0 50 450 250 (subpatch) 0;
#X array out 100 float 1;
#A 0 -0.137378 0.146157 0.419292 0.656648 0.838391 0.952906 0.998555
0.983156 0.920884 0.829169 0.725809 0.626063 0.541563 0.480538 0.448554
0.447613 0.47759 0.536316 0.61955 0.718772 0.822298 0.915142 0.980113
0.999337 0.958303 0.848936 0.671729 0.437754 0.166647 -0.116645 -0.386383
-0.619723 -0.801081 -0.923229 -0.986807 -0.998636 -0.969423 -0.911242
-0.835695 -0.752724 -0.67 -0.592832 -0.524538 -0.466734 -0.419823 -0.383293
-0.356087 -0.336856 -0.324069 -0.316223 -0.31191 -0.30989 -0.30917
-0.309019 -0.309012 -0.309035 -0.309292 -0.310298 -0.312862 -0.318043
-0.327143 -0.341589 -0.362909 -0.392579 -0.431885 -0.481741 -0.542412
-0.613237 -0.69216 -0.775358 -0.856956 -0.928728 -0.980309 -0.999992
-0.976033 -0.898664 -0.762533 -0.569022 -0.327302 -0.0545314 0.225859
0.488377 0.709783 0.872822 0.969039 0.999976 0.975198 0.909566 0.820476
0.724331 0.634868 0.562575 0.515197 0.49624 0.507127 0.547027 0.613264
0.698919 0.794449 0.886951;
#X coords 0 1 99 -1 200 140 1;
#X restore 383 331 graph;
#X obj 1667 65 hsl 128 15 0 127 0 0 empty empty empty -2 -8 0 10 -262144
-1 -1 0 1;
#X obj 1670 87 mtof~;
#X obj 1685 155 *~;
#X floatatom 1701 134 5 0 0 0 - - -;
#X obj 1670 179 +~;
#X obj 1641 205 vcf~ 220 1;
#X floatatom 1698 180 5 0 0 0 - - -;
#X obj 1643 257 *~;
#X obj 1780 102 vsl 15 128 0 1 0 0 empty empty Vol 0 -9 0 10 -262144
-1 -1 0 1;
#X obj 1642 280 dac~;
#X obj 1710 278 tabwrite~ out;
#X obj 1710 235 tgl 15 0 empty empty empty 17 7 0 10 -262144 -1 -1
0 1;
#X obj 1710 255 metro 100;
#X text 213 166 FM;
#X text 1704 44 VCF;
#X text 1734 132 10000;
#X obj 193 372 *~;
#X obj 208 352 vline~;
#X obj 193 770 dac~;
#X obj 192 636 *~;
#X obj 324 507 vsl 15 128 0 1 0 0 empty empty vol 0 -9 0 10 -262144
-1 -1 10600 1;
#X obj 226 19 vsl 15 128 10 1000 0 0 empty empty A 0 -9 0 10 -262144
-1 -1 0 1;
#X obj 263 19 vsl 15 128 10 1000 0 0 empty empty D 0 -9 0 10 -262144
-1 -1 3700 1;
#X obj 300 19 vsl 15 128 0 1 0 0 empty empty S 0 -9 0 10 -262144 -1
-1 7200 1;
#X obj 337 19 vsl 15 128 10 1000 0 0 empty empty R 0 -9 0 10 -262144
-1 -1 10600 1;
#X floatatom 226 152 5 0 0 0 - - -;
#X floatatom 263 152 5 0 0 0 - - -;
#X floatatom 300 152 5 0 0 0 - - -;
#X floatatom 337 152 5 0 0 0 - - -;
#X obj 1834 224 osc~;
#X obj 5 57 key;
#X floatatom 5 76 5 0 0 0 - - -;
#X obj 5 114 bng 15 250 50 0 empty empty empty 17 7 0 10 -262144 -1
-1;
#X obj 27 114 bng 15 250 50 0 empty empty empty 17 7 0 10 -262144 -1
-1;
#X obj 49 114 bng 15 250 50 0 empty empty empty 17 7 0 10 -262144 -1
-1;
#X obj 71 114 bng 15 250 50 0 empty empty empty 17 7 0 10 -262144 -1
-1;
#X obj 93 114 bng 15 250 50 0 empty empty empty 17 7 0 10 -262144 -1
-1;
#X obj 115 114 bng 15 250 50 0 empty empty empty 17 7 0 10 -262144
-1 -1;
#X obj 137 114 bng 15 250 50 0 empty empty empty 17 7 0 10 -262144
-1 -1;
#X msg 5 132 60;
#X msg 32 132 62;
#X msg 58 132 64;
#X msg 85 132 65;
#X msg 112 132 67;
#X msg 139 132 69;
#X msg 165 132 71;
#X obj 192 152 mtof;
#X obj 208 296 bng 15 250 50 0 empty empty empty 17 7 0 10 -262144
-1 -1;
#X obj 374 19 vsl 15 128 100 1000 0 0 empty empty length_of_sustain
0 -9 0 10 -262144 -1 -1 5300 1;
#X floatatom 374 152 5 0 0 0 - - -;
#X floatatom 301 294 5 0 0 0 - - -;
#X obj 301 275 +;
#X obj 301 238 +;
#X obj 301 220 bng 15 250 50 0 empty empty empty 17 7 0 10 -262144
-1 -1;
#X obj 301 257 bng 15 250 50 0 empty empty empty 17 7 0 10 -262144
-1 -1;
#X obj 208 313 pack f f f f f f;
#X msg 208 333 1 \$2 \, \$4 \$3 \$2 \, 0 \$5 \$6;
#X obj 208 199 osc~ 1000;
#X obj 1685 112 osc~ 0.25;
#X floatatom 208 404 5 0 0 0 - - -;
#X obj 208 423 / 6;
#X obj 207 500 *~;
#X floatatom 222 462 5 0 0 0 - - -;
#X obj 222 480 / 6923;
#X obj 207 519 +~ 1;
#X obj 192 539 *~;
#X obj 192 558 *~;
#X obj 192 578 *~;
#X obj 192 597 +~ 0.3;
#X obj 192 617 cos~;
#X obj 208 442 tabosc4~;
#X text 205 389 vibrato;
#X text 240 404 speed (Hz);
#X text 255 460 depth;
#X obj 192 712 lop~;
#X floatatom 214 731 5 0 0 0 - - -;
#X obj 213 674 mtof;
#X floatatom 213 694 5 0 0 0 - - -;
#X floatatom 213 656 5 0 0 0 - - -;
#X obj 193 750 hip~;
#X text 247 656 low pass cutoff freq;
#X text 247 731 high pass cutoff freq;
#X msg 192 132 72;
#X obj 159 114 bng 15 250 50 0 empty empty empty 17 7 0 10 -262144
-1 -1;
#X obj 5 95 select 49 50 51 52 53 54 55 56;
#X connect 1 0 0 0;
#X connect 3 0 69 0;
#X connect 4 0 6 1;
#X connect 5 0 4 1;
#X connect 6 0 7 0;
#X connect 7 0 28 0;
#X connect 9 0 10 0;
#X connect 10 0 8 0;
#X connect 12 0 13 0;
#X connect 13 0 16 0;
#X connect 14 0 16 1;
#X connect 15 0 14 1;
#X connect 16 0 17 1;
#X connect 17 0 22 0;
#X connect 18 0 17 2;
#X connect 19 0 21 0;
#X connect 19 0 21 1;
#X connect 20 0 19 1;
#X connect 23 0 24 0;
#X connect 24 0 22 0;
#X connect 28 0 77 0;
#X connect 29 0 28 1;
#X connect 31 0 86 0;
#X connect 32 0 31 1;
#X connect 33 0 37 0;
#X connect 34 0 38 0;
#X connect 35 0 39 0;
#X connect 36 0 40 0;
#X connect 37 0 64 0;
#X connect 37 0 67 1;
#X connect 38 0 64 1;
#X connect 38 0 65 0;
#X connect 38 0 67 2;
#X connect 39 0 67 3;
#X connect 40 0 67 4;
#X connect 42 0 43 0;
#X connect 43 0 59 0;
#X connect 43 0 96 0;
#X connect 44 0 51 0;
#X connect 45 0 52 0;
#X connect 46 0 53 0;
#X connect 47 0 54 0;
#X connect 48 0 55 0;
#X connect 49 0 56 0;
#X connect 50 0 57 0;
#X connect 51 0 58 0;
#X connect 52 0 58 0;
#X connect 53 0 58 0;
#X connect 54 0 58 0;
#X connect 55 0 58 0;
#X connect 56 0 58 0;
#X connect 57 0 58 0;
#X connect 58 0 6 0;
#X connect 59 0 67 0;
#X connect 60 0 61 0;
#X connect 61 0 66 0;
#X connect 61 0 63 1;
#X connect 62 0 67 5;
#X connect 63 0 62 0;
#X connect 64 0 63 0;
#X connect 65 0 64 0;
#X connect 66 0 63 0;
#X connect 67 0 68 0;
#X connect 68 0 29 0;
#X connect 69 0 4 0;
#X connect 70 0 14 0;
#X connect 71 0 72 0;
#X connect 72 0 82 0;
#X connect 73 0 76 0;
#X connect 74 0 75 0;
#X connect 75 0 73 1;
#X connect 76 0 77 1;
#X connect 77 0 78 0;
#X connect 77 0 78 1;
#X connect 78 0 79 1;
#X connect 78 0 79 0;
#X connect 79 0 80 0;
#X connect 80 0 81 0;
#X connect 81 0 31 0;
#X connect 81 0 8 0;
#X connect 82 0 73 0;
#X connect 86 0 91 0;
#X connect 87 0 91 1;
#X connect 88 0 89 0;
#X connect 89 0 86 1;
#X connect 90 0 88 0;
#X connect 91 0 30 0;
#X connect 91 0 30 1;
#X connect 94 0 58 0;
#X connect 95 0 94 0;
#X connect 96 0 44 0;
#X connect 96 1 45 0;
#X connect 96 2 46 0;
#X connect 96 3 47 0;
#X connect 96 4 48 0;
#X connect 96 5 49 0;
#X connect 96 6 50 0;
#X connect 96 7 95 0;
