#N canvas 2552 137 1920 1117 10;
#X msg 10 27 \; pd dsp \$1;
#X obj 10 9 tgl 15 0 empty empty empty 17 7 0 10 -262144 -1 -1 1 1
;
#X text 32 8 dsp toggle;
#X floatatom 300 263 5 0 0 0 - - -;
#X obj 300 319 *~;
#X floatatom 315 301 5 0 0 0 - - -;
#X obj 209 602 +~;
#X obj 209 621 osc~;
#X obj 109 964 tabwrite~ out;
#X obj 109 927 tgl 15 0 empty empty empty 17 7 0 10 -262144 -1 -1 1
1;
#X obj 109 944 metro 100;
#N canvas 0 50 450 250 (subpatch) 0;
#X array out 100 float 1;
#A 0 0.440651 0.44447 0.447666 0.450237 0.452174 0.453479 0.454153
0.454197 0.45361 0.452394 0.450546 0.448064 0.444953 0.441216 0.436856
0.431877 0.426282 0.420071 0.413247 0.405818 0.397789 0.389167 0.379957
0.370167 0.359798 0.348857 0.337355 0.3253 0.312701 0.299568 0.285907
0.271725 0.257033 0.241843 0.226165 0.210012 0.193393 0.17632 0.158801
0.140851 0.122482 0.103708 0.0845426 0.0649984 0.0450867 0.0248209
0.00421618 -0.0167125 -0.0379503 -0.0594825 -0.0812941 -0.103372 -0.125702
-0.148265 -0.171048 -0.194033 -0.217204 -0.240547 -0.264046 -0.287683
-0.311444 -0.335309 -0.359264 -0.383292 -0.407377 -0.278742 -0.0160037
0.138973 0.226691 0.27244 0.292015 0.295283 0.288412 0.275257 0.25823
0.238843 0.218048 0.196443 0.17441 0.152192 0.129947 0.107779 0.0857571
0.0639322 0.0423407 0.0210147 -2.39937e-005 -0.0207562 -0.0411649 -0.0612341
-0.080949 -0.100294 -0.119252 -0.137811 -0.155959 -0.173683 -0.190973
-0.207816 -0.224197 -0.240104;
#X coords 0 1 99 -1 200 140 1;
#X restore 981 729 graph;
#X obj 1667 65 hsl 128 15 0 127 0 0 empty empty empty -2 -8 0 10 -262144
-1 -1 0 1;
#X obj 1670 87 mtof~;
#X obj 1685 155 *~;
#X floatatom 1701 134 5 0 0 0 - - -;
#X obj 1670 179 +~;
#X obj 1641 205 vcf~ 220 1;
#X floatatom 1698 180 5 0 0 0 - - -;
#X obj 1643 257 *~;
#X obj 1780 102 vsl 15 128 0 1 0 0 empty empty Vol 0 -9 0 10 -262144
-1 -1 0 1;
#X obj 1642 280 dac~;
#X obj 1710 278 tabwrite~ out;
#X obj 1710 235 tgl 15 0 empty empty empty 17 7 0 10 -262144 -1 -1
0 1;
#X obj 1710 255 metro 100;
#X text 305 248 FM;
#X text 1704 44 VCF;
#X text 1734 132 10000;
#X obj 210 719 *~;
#X obj 209 987 dac~;
#X obj 209 968 *~;
#X obj 648 828 vsl 15 128 0 1 0 0 empty empty vol 0 -9 0 10 -262144
-1 -1 700 1;
#X obj 524 420 vsl 15 128 10 1000 0 0 empty empty A 0 -9 0 10 -262144
-1 -1 3400 1;
#X obj 561 420 vsl 15 128 10 1000 0 0 empty empty D 0 -9 0 10 -262144
-1 -1 1200 1;
#X obj 598 420 vsl 15 128 0 1 0 0 empty empty S 0 -9 0 10 -262144 -1
-1 12400 1;
#X obj 635 420 vsl 15 128 10 1000 0 0 empty empty R 0 -9 0 10 -262144
-1 -1 12100 1;
#X floatatom 524 553 5 0 0 0 - - -;
#X floatatom 561 553 5 0 0 0 - - -;
#X floatatom 598 553 5 0 0 0 - - -;
#X floatatom 635 553 5 0 0 0 - - -;
#X obj 1834 224 osc~;
#X floatatom 1178 35 5 0 0 0 - - -;
#X obj 1178 73 bng 15 250 50 0 empty empty empty 17 7 0 10 -262144
-1 -1;
#X obj 1200 73 bng 15 250 50 0 empty empty empty 17 7 0 10 -262144
-1 -1;
#X obj 1222 73 bng 15 250 50 0 empty empty empty 17 7 0 10 -262144
-1 -1;
#X obj 1244 73 bng 15 250 50 0 empty empty empty 17 7 0 10 -262144
-1 -1;
#X obj 1266 73 bng 15 250 50 0 empty empty empty 17 7 0 10 -262144
-1 -1;
#X obj 1288 73 bng 15 250 50 0 empty empty empty 17 7 0 10 -262144
-1 -1;
#X obj 1310 73 bng 15 250 50 0 empty empty empty 17 7 0 10 -262144
-1 -1;
#X msg 1178 91 60;
#X msg 1205 91 62;
#X msg 1231 91 64;
#X msg 1258 91 65;
#X msg 1285 91 67;
#X msg 1312 91 69;
#X msg 1339 91 71;
#X obj 208 497 mtof;
#X obj 492 532 bng 15 250 50 0 empty empty empty 17 7 0 10 -262144
-1 -1;
#X obj 1685 112 osc~ 0.25;
#X obj 209 910 lop~;
#X floatatom 323 883 5 0 0 0 - - -;
#X obj 494 684 mtof;
#X floatatom 494 703 5 0 0 0 - - -;
#X floatatom 494 666 5 0 0 0 - - -;
#X obj 209 948 hip~;
#X text 531 667 low pass cutoff freq;
#X text 360 884 high pass cutoff freq;
#X msg 1366 91 72;
#X obj 1332 73 bng 15 250 50 0 empty empty empty 17 7 0 10 -262144
-1 -1;
#X obj 1178 54 select 49 50 51 52 53 54 55 56;
#X obj 300 281 osc~;
#X obj 30 109 tgl 15 0 empty empty empty 17 7 0 10 -262144 -1 -1 1
1;
#X obj 30 185 hradio 15 1 0 8 empty empty empty 0 -8 0 10 -262144 -1
-1 7;
#X obj 30 146 f;
#X obj 54 146 + 1;
#X obj 104 320 vradio 15 1 0 12 empty empty empty 0 -8 0 10 -262144
-1 -1 4;
#X obj 44 320 vradio 15 1 0 12 empty empty empty 0 -8 0 10 -262144
-1 -1 4;
#X obj 59 320 vradio 15 1 0 12 empty empty empty 0 -8 0 10 -262144
-1 -1 7;
#X obj 74 320 vradio 15 1 0 12 empty empty empty 0 -8 0 10 -262144
-1 -1 11;
#X obj 89 320 vradio 15 1 0 12 empty empty empty 0 -8 0 10 -262144
-1 -1 7;
#X obj 30 320 vradio 15 1 0 12 empty empty empty 0 -8 0 10 -262144
-1 -1 0;
#X obj 119 320 vradio 15 1 0 12 empty empty empty 0 -8 0 10 -262144
-1 -1 0;
#X obj 134 320 vradio 15 1 0 12 empty empty empty 0 -8 0 10 -262144
-1 -1 4;
#X floatatom 45 541 5 0 0 0 - - -;
#X obj 30 560 +;
#X obj 31 127 metro 400;
#X obj 30 203 select 0 1 2 3 4 5 6 7;
#X obj 30 166 mod 8;
#X obj 45 502 loadbang;
#X msg 45 522 50, f 4;
#X msg 494 647 100;
#X obj 494 627 loadbang;
#X obj 524 386 inlet;
#X obj 30 89 loadbang;
#X obj 561 386 inlet;
#X obj 598 386 inlet;
#X obj 635 386 inlet;
#X obj 648 794 inlet;
#X obj 207 1012 outlet~;
#X obj 29 222 inlet;
#X obj 45 242 inlet;
#X obj 59 261 inlet;
#X obj 74 300 inlet;
#X obj 89 281 inlet;
#X obj 104 261 inlet;
#X obj 119 242 inlet;
#X obj 134 222 inlet;
#X obj 243 621 square;
#X obj 492 573 adsr, f 14;
#X msg 492 552 1;
#X connect 1 0 0 0;
#X connect 3 0 70 0;
#X connect 4 0 6 1;
#X connect 5 0 4 1;
#X connect 6 0 7 0;
#X connect 6 0 107 0;
#X connect 7 0 28 0;
#X connect 9 0 10 0;
#X connect 10 0 8 0;
#X connect 12 0 13 0;
#X connect 13 0 16 0;
#X connect 14 0 16 1;
#X connect 15 0 14 1;
#X connect 16 0 17 1;
#X connect 17 0 22 0;
#X connect 18 0 17 2;
#X connect 19 0 21 0;
#X connect 19 0 21 1;
#X connect 20 0 19 1;
#X connect 23 0 24 0;
#X connect 24 0 22 0;
#X connect 28 0 59 0;
#X connect 30 0 29 0;
#X connect 30 0 29 1;
#X connect 30 0 98 0;
#X connect 31 0 30 1;
#X connect 32 0 36 0;
#X connect 33 0 37 0;
#X connect 34 0 38 0;
#X connect 35 0 39 0;
#X connect 36 0 108 2;
#X connect 37 0 108 3;
#X connect 38 0 108 4;
#X connect 39 0 108 5;
#X connect 41 0 69 0;
#X connect 42 0 49 0;
#X connect 43 0 50 0;
#X connect 44 0 51 0;
#X connect 45 0 52 0;
#X connect 46 0 53 0;
#X connect 47 0 54 0;
#X connect 48 0 55 0;
#X connect 56 0 6 0;
#X connect 57 0 109 0;
#X connect 58 0 14 0;
#X connect 59 0 64 0;
#X connect 60 0 64 1;
#X connect 61 0 62 0;
#X connect 62 0 59 1;
#X connect 63 0 61 0;
#X connect 64 0 30 0;
#X connect 64 0 8 0;
#X connect 68 0 67 0;
#X connect 69 0 42 0;
#X connect 69 1 43 0;
#X connect 69 2 44 0;
#X connect 69 3 45 0;
#X connect 69 4 46 0;
#X connect 69 5 47 0;
#X connect 69 6 48 0;
#X connect 69 7 68 0;
#X connect 70 0 4 0;
#X connect 71 0 85 0;
#X connect 72 0 86 0;
#X connect 73 0 74 0;
#X connect 73 0 87 0;
#X connect 74 0 73 1;
#X connect 75 0 84 0;
#X connect 76 0 84 0;
#X connect 77 0 84 0;
#X connect 78 0 84 0;
#X connect 79 0 84 0;
#X connect 80 0 84 0;
#X connect 81 0 84 0;
#X connect 82 0 84 0;
#X connect 83 0 84 1;
#X connect 84 0 56 0;
#X connect 84 0 57 0;
#X connect 85 0 73 0;
#X connect 86 0 80 0;
#X connect 86 1 76 0;
#X connect 86 2 77 0;
#X connect 86 3 78 0;
#X connect 86 4 79 0;
#X connect 86 5 75 0;
#X connect 86 6 81 0;
#X connect 86 7 82 0;
#X connect 87 0 72 0;
#X connect 88 0 89 0;
#X connect 89 0 83 0;
#X connect 90 0 63 0;
#X connect 91 0 90 0;
#X connect 92 0 32 0;
#X connect 93 0 71 0;
#X connect 94 0 33 0;
#X connect 95 0 34 0;
#X connect 96 0 35 0;
#X connect 97 0 31 0;
#X connect 99 0 80 0;
#X connect 100 0 76 0;
#X connect 101 0 77 0;
#X connect 102 0 78 0;
#X connect 103 0 79 0;
#X connect 104 0 75 0;
#X connect 105 0 81 0;
#X connect 106 0 82 0;
#X connect 107 0 28 0;
#X connect 108 0 28 1;
#X connect 109 0 108 0;
#X connect 109 0 108 1;
