#N canvas 2552 137 1920 1117 10;
#X msg 10 27 \; pd dsp \$1;
#X obj 10 9 tgl 15 0 empty empty empty 17 7 0 10 -262144 -1 -1 1 1
;
#X text 32 8 dsp toggle;
#X floatatom 469 401 5 0 0 0 - - -;
#X obj 469 477 *~;
#X floatatom 484 459 5 0 0 0 - - -;
#X obj 155 620 +~;
#X obj 155 639 osc~;
#X obj 55 769 tabwrite~ out;
#X obj 55 732 tgl 15 0 empty empty empty 17 7 0 10 -262144 -1 -1 1
1;
#X obj 55 749 metro 100;
#N canvas 0 50 450 250 (subpatch) 0;
#X array out 100 float 1;
#A 0 0.10263 0.119503 0.136336 0.153117 0.169834 0.186476 0.203031
0.219489 0.235837 0.252064 0.268157 0.284107 0.299903 0.315533 0.330988
0.346256 0.361325 0.376185 0.390827 0.40524 0.419415 0.433343 0.447011
0.460411 0.473533 0.486369 0.49891 0.511149 0.523076 0.534682 0.545957
0.556895 0.567489 0.577733 0.58762 0.597142 0.60629 0.615057 0.62344
0.631433 0.639032 0.64623 0.653023 0.659402 0.665365 0.670908 0.676028
0.680723 0.684989 0.688821 0.692215 0.69517 0.697685 0.699758 0.70139
0.702578 0.657279 0.62883 0.610732 0.598931 0.590893 0.585039 0.580383
0.576306 0.572426 0.568505 0.564397 0.560012 0.555294 0.550209 0.544735
0.538862 0.532586 0.525908 0.518829 0.511352 0.503479 0.495213 0.48656
0.477528 0.468122 0.458349 0.448216 0.437729 0.426893 0.415717 0.404211
0.392381 0.380237 0.367787 0.355038 0.341998 0.328677 0.315086 0.301233
0.28713 0.272784 0.258205 0.243403 0.22839;
#X coords 0 1 99 -1 200 140 1;
#X restore 458 63 graph;
#X text 475 345 FM;
#X obj 155 680 *~;
#X obj 155 793 dac~;
#X obj 155 774 *~;
#X obj 756 645 vsl 15 128 0 1 0 0 empty empty vol 0 -9 0 10 -262144
-1 -1 4050 1;
#X obj 587 420 vsl 15 128 10 1000 0 0 empty empty A 0 -9 0 10 -262144
-1 -1 4250 1;
#X obj 624 420 vsl 15 128 10 1000 0 0 empty empty D 0 -9 0 10 -262144
-1 -1 7600 1;
#X obj 661 420 vsl 15 128 0 1 0 0 empty empty S 0 -9 0 10 -262144 -1
-1 7200 1;
#X obj 698 420 vsl 15 128 10 1000 0 0 empty empty R 0 -9 0 10 -262144
-1 -1 1800 1;
#X floatatom 587 553 5 0 0 0 - - -;
#X floatatom 624 553 5 0 0 0 - - -;
#X floatatom 661 553 5 0 0 0 - - -;
#X floatatom 698 553 5 0 0 0 - - -;
#X floatatom 55 886 5 0 0 0 - - -;
#X obj 55 924 bng 15 250 50 0 empty empty empty 17 7 0 10 -262144 -1
-1;
#X obj 77 924 bng 15 250 50 0 empty empty empty 17 7 0 10 -262144 -1
-1;
#X obj 99 924 bng 15 250 50 0 empty empty empty 17 7 0 10 -262144 -1
-1;
#X obj 121 924 bng 15 250 50 0 empty empty empty 17 7 0 10 -262144
-1 -1;
#X obj 143 924 bng 15 250 50 0 empty empty empty 17 7 0 10 -262144
-1 -1;
#X obj 165 924 bng 15 250 50 0 empty empty empty 17 7 0 10 -262144
-1 -1;
#X obj 187 924 bng 15 250 50 0 empty empty empty 17 7 0 10 -262144
-1 -1;
#X msg 55 942 60;
#X msg 82 942 62;
#X msg 108 942 64;
#X msg 135 942 65;
#X msg 162 942 67;
#X msg 189 942 69;
#X msg 216 942 71;
#X obj 155 601 mtof;
#X obj 555 532 bng 15 250 50 0 empty empty empty 17 7 0 10 -262144
-1 -1;
#X obj 155 716 lop~;
#X floatatom 376 741 5 0 0 0 - - -;
#X obj 323 684 mtof;
#X floatatom 323 703 5 0 0 0 - - -;
#X floatatom 323 666 5 0 0 0 - - -;
#X obj 155 754 hip~;
#X text 360 667 low pass cutoff freq;
#X text 414 741 high pass cutoff freq;
#X msg 243 942 72;
#X obj 209 924 bng 15 250 50 0 empty empty empty 17 7 0 10 -262144
-1 -1;
#X obj 55 905 select 49 50 51 52 53 54 55 56;
#X obj 469 419 osc~;
#X obj 159 38 tgl 15 0 empty empty empty 17 7 0 10 -262144 -1 -1 1
1;
#X obj 158 114 hradio 15 1 0 8 empty empty empty 0 -8 0 10 -262144
-1 -1 7;
#X obj 158 75 f;
#X obj 182 75 + 1;
#X obj 232 249 vradio 15 1 0 12 empty empty empty 0 -8 0 10 -262144
-1 -1 4;
#X obj 172 249 vradio 15 1 0 12 empty empty empty 0 -8 0 10 -262144
-1 -1 4;
#X obj 187 249 vradio 15 1 0 12 empty empty empty 0 -8 0 10 -262144
-1 -1 7;
#X obj 202 249 vradio 15 1 0 12 empty empty empty 0 -8 0 10 -262144
-1 -1 11;
#X obj 217 249 vradio 15 1 0 12 empty empty empty 0 -8 0 10 -262144
-1 -1 7;
#X obj 158 249 vradio 15 1 0 12 empty empty empty 0 -8 0 10 -262144
-1 -1 0;
#X obj 247 249 vradio 15 1 0 12 empty empty empty 0 -8 0 10 -262144
-1 -1 0;
#X obj 262 249 vradio 15 1 0 12 empty empty empty 0 -8 0 10 -262144
-1 -1 4;
#X floatatom 287 518 5 0 0 0 - - -;
#X obj 209 552 +;
#X obj 158 132 select 0 1 2 3 4 5 6 7;
#X obj 158 95 mod 8;
#X msg 287 499 50, f 4;
#X msg 323 647 100;
#X obj 587 386 inlet;
#X obj 159 18 loadbang;
#X obj 624 386 inlet;
#X obj 661 386 inlet;
#X obj 698 386 inlet;
#X obj 756 611 inlet;
#X obj 153 818 outlet~;
#X obj 157 151 inlet;
#X obj 173 171 inlet;
#X obj 187 190 inlet;
#X obj 202 229 inlet;
#X obj 217 210 inlet;
#X obj 232 190 inlet;
#X obj 247 171 inlet;
#X obj 262 151 inlet;
#X obj 188 639 square;
#X obj 555 573 adsr, f 14;
#X msg 555 552 1;
#X obj 155 660 *~;
#X obj 188 660 *~;
#X obj 125 531 vsl 15 128 0 1 0 0 empty empty squareMix 0 -9 0 10 -262144
-1 -1 1600 1;
#X obj 85 531 vsl 15 128 0 1 0 0 empty empty oscMix 0 -9 0 10 -262144
-1 -1 8400 1;
#X obj 125 498 inlet;
#X obj 85 498 inlet;
#X obj 469 382 inlet;
#X obj 484 439 inlet;
#X obj 289 42 inlet;
#X obj 159 56 metro 400;
#X obj 376 721 inlet;
#X obj 323 627 inlet;
#X obj 287 479 inlet;
#X text 270 464 midi offset;
#X connect 1 0 0 0;
#X connect 3 0 53 0;
#X connect 4 0 6 1;
#X connect 5 0 4 1;
#X connect 6 0 7 0;
#X connect 6 0 87 0;
#X connect 7 0 90 0;
#X connect 9 0 10 0;
#X connect 10 0 8 0;
#X connect 13 0 42 0;
#X connect 15 0 14 0;
#X connect 15 0 14 1;
#X connect 15 0 78 0;
#X connect 16 0 15 1;
#X connect 17 0 21 0;
#X connect 18 0 22 0;
#X connect 19 0 23 0;
#X connect 20 0 24 0;
#X connect 21 0 88 2;
#X connect 22 0 88 3;
#X connect 23 0 88 4;
#X connect 24 0 88 5;
#X connect 25 0 52 0;
#X connect 26 0 33 0;
#X connect 27 0 34 0;
#X connect 28 0 35 0;
#X connect 29 0 36 0;
#X connect 30 0 37 0;
#X connect 31 0 38 0;
#X connect 32 0 39 0;
#X connect 40 0 6 0;
#X connect 41 0 89 0;
#X connect 42 0 47 0;
#X connect 43 0 47 1;
#X connect 44 0 45 0;
#X connect 45 0 42 1;
#X connect 46 0 44 0;
#X connect 47 0 15 0;
#X connect 47 0 8 0;
#X connect 51 0 50 0;
#X connect 52 0 26 0;
#X connect 52 1 27 0;
#X connect 52 2 28 0;
#X connect 52 3 29 0;
#X connect 52 4 30 0;
#X connect 52 5 31 0;
#X connect 52 6 32 0;
#X connect 52 7 51 0;
#X connect 53 0 4 0;
#X connect 54 0 99 0;
#X connect 55 0 68 0;
#X connect 56 0 57 0;
#X connect 56 0 69 0;
#X connect 57 0 56 1;
#X connect 58 0 67 0;
#X connect 59 0 67 0;
#X connect 60 0 67 0;
#X connect 61 0 67 0;
#X connect 62 0 67 0;
#X connect 63 0 67 0;
#X connect 64 0 67 0;
#X connect 65 0 67 0;
#X connect 66 0 67 1;
#X connect 67 0 40 0;
#X connect 67 0 41 0;
#X connect 68 0 63 0;
#X connect 68 1 59 0;
#X connect 68 2 60 0;
#X connect 68 3 61 0;
#X connect 68 4 62 0;
#X connect 68 5 58 0;
#X connect 68 6 64 0;
#X connect 68 7 65 0;
#X connect 69 0 55 0;
#X connect 70 0 66 0;
#X connect 71 0 46 0;
#X connect 72 0 17 0;
#X connect 73 0 54 0;
#X connect 74 0 18 0;
#X connect 75 0 19 0;
#X connect 76 0 20 0;
#X connect 77 0 16 0;
#X connect 79 0 63 0;
#X connect 80 0 59 0;
#X connect 81 0 60 0;
#X connect 82 0 61 0;
#X connect 83 0 62 0;
#X connect 84 0 58 0;
#X connect 85 0 64 0;
#X connect 86 0 65 0;
#X connect 87 0 91 0;
#X connect 88 0 13 1;
#X connect 89 0 88 0;
#X connect 89 0 88 1;
#X connect 90 0 13 0;
#X connect 91 0 13 0;
#X connect 92 0 91 1;
#X connect 93 0 90 1;
#X connect 94 0 92 0;
#X connect 95 0 93 0;
#X connect 96 0 3 0;
#X connect 97 0 5 0;
#X connect 98 0 99 1;
#X connect 99 0 56 0;
#X connect 100 0 43 0;
#X connect 101 0 46 0;
#X connect 102 0 66 0;
