#N canvas -8 -8 1920 997 10;
#X obj 275 245 dac~;
#X obj 41 117 square;
#X floatatom -15 84 5 0 0 0 - - -, f 5;
#X msg 438 154 1;
#X msg 483 154 0;
#X obj 501 111 loadbang;
#X obj 278 171 *~;
#X obj -15 20 loadbang;
#X obj 438 90 tgl 15 1 empty empty empty 17 7 0 10 -262144 -1 -1 0
1;
#X msg -15 52 314;
#X obj 49 44 r freq @hv_param 0 1000 314;
#X obj 438 112 select 1;
#X obj -15 155 *~;
#X msg 121 138 1;
#X msg 243 138 0;
#X obj 99 106 loadbang;
#X obj 168 89 tgl 15 1 empty empty empty 17 7 0 10 -262144 -1 -1 0
1;
#X obj 168 112 select 1;
#X obj 42 155 *~;
#X msg 162 138 0;
#X msg 204 138 1;
#X obj 41 98 / 4;
#X obj 438 41 r onOff;
#X obj 168 66 r waveToggle @hv_param 0 1 1;
#X obj -15 113 osc~;
#X text 685 336 Toggle #1 (T1) turns the sound on and off;
#X text 685 355 Toggle #2 (T2) switches between Sine and Square wave
;
#X text 687 41 Example PD Patch for Unity implementation with the Heavy
Compiler. Made for use in conjunction with the video series by Jeff
Ahking Wolphox.com;
#X text 684 194 This patch plays a simple waveform with parameters
that toggle the volume \, wavetype \, and adjust the frequency.;
#X text 685 225 For more information \, visit https://enzienaudio.com/docs/unity.html
;
#X text 686 308 Guide:;
#X text 460 88 T1;
#X text 453 22 P1;
#X text 190 86 T2;
#X text 251 43 P2;
#X text 110 27 P3;
#X text 64 99 A1;
#X text 683 399 This patch has three adjustable parameters. Parameter
#1 (P1) is a private parameter that can receive a 'Bang' from Unity
script. It toggles the volume on and off. Parameter #2 (P2) is a public
parameter that can receive a 'bang' or a float from Unity Script \,
but is intended to receive a 'bang'. It toggles between a sine and
a square wave. Parameter #3 (P3) is a public parameter that is intended
to receive a float. It adjusts the pitch. This patch contains one abstraction.
Abstraction #1 (A1) - see object named 'square'. Emits a square wave.
;
#X connect 1 0 18 0;
#X connect 2 0 24 0;
#X connect 2 0 21 0;
#X connect 3 0 6 1;
#X connect 4 0 6 1;
#X connect 5 0 3 0;
#X connect 6 0 0 0;
#X connect 6 0 0 1;
#X connect 7 0 9 0;
#X connect 8 0 11 0;
#X connect 9 0 2 0;
#X connect 10 0 2 0;
#X connect 11 0 3 0;
#X connect 11 1 4 0;
#X connect 12 0 6 0;
#X connect 13 0 12 1;
#X connect 14 0 12 1;
#X connect 15 0 13 0;
#X connect 15 0 19 0;
#X connect 16 0 17 0;
#X connect 17 0 13 0;
#X connect 17 0 19 0;
#X connect 17 1 14 0;
#X connect 17 1 20 0;
#X connect 18 0 6 0;
#X connect 19 0 18 1;
#X connect 20 0 18 1;
#X connect 21 0 1 0;
#X connect 22 0 8 0;
#X connect 23 0 16 0;
#X connect 24 0 12 0;
