#N canvas 587 160 450 300 10;
#X msg 10 27 \; pd dsp \$1;
#X obj 10 9 tgl 15 0 empty empty empty 17 7 0 10 -262144 -1 -1 0 1
;
#X text 32 8 dsp toggle;
#X floatatom 469 401 5 0 0 0 - - -;
#X obj 469 477 *~;
#X floatatom 484 459 5 0 0 0 - - -;
#X obj 155 620 +~;
#X obj 155 639 osc~;
#X text 476 364 FM;
#X obj 155 680 *~;
#X obj 155 793 dac~;
#X obj 155 774 *~;
#X obj 756 645 vsl 15 128 0 1 0 0 empty empty vol 0 -9 0 10 -262144
-1 -1 0 1;
#X obj 587 420 vsl 15 128 10 1000 0 0 empty empty A 0 -9 0 10 -262144
-1 -1 0 1;
#X obj 624 420 vsl 15 128 10 1000 0 0 empty empty D 0 -9 0 10 -262144
-1 -1 0 1;
#X obj 661 420 vsl 15 128 0 1 0 0 empty empty S 0 -9 0 10 -262144 -1
-1 0 1;
#X obj 698 420 vsl 15 128 10 1000 0 0 empty empty R 0 -9 0 10 -262144
-1 -1 0 1;
#X floatatom 587 553 5 0 0 0 - - -;
#X floatatom 624 553 5 0 0 0 - - -;
#X floatatom 661 553 5 0 0 0 - - -;
#X floatatom 698 553 5 0 0 0 - - -;
#X obj 155 601 mtof;
#X obj 555 532 bng 15 250 50 0 empty empty empty 17 7 0 10 -262144
-1 -1;
#X obj 155 716 lop~;
#X floatatom 376 741 5 0 0 0 - - -;
#X obj 323 684 mtof;
#X floatatom 323 703 5 0 0 0 - - -;
#X floatatom 323 666 5 0 0 0 - - -;
#X obj 155 754 hip~;
#X text 360 667 low pass cutoff freq;
#X text 414 741 high pass cutoff freq;
#X obj 469 419 osc~;
#X obj 159 38 tgl 15 0 empty empty empty 17 7 0 10 -262144 -1 -1 1
1;
#X obj 158 114 hradio 15 1 0 8 empty empty empty 0 -8 0 10 -262144
-1 -1 5;
#X obj 158 75 f;
#X obj 182 75 + 1;
#X obj 232 249 vradio 15 1 0 12 empty empty empty 0 -8 0 10 -262144
-1 -1 4;
#X obj 172 249 vradio 15 1 0 12 empty empty empty 0 -8 0 10 -262144
-1 -1 4;
#X obj 187 249 vradio 15 1 0 12 empty empty empty 0 -8 0 10 -262144
-1 -1 7;
#X obj 202 249 vradio 15 1 0 12 empty empty empty 0 -8 0 10 -262144
-1 -1 11;
#X obj 217 249 vradio 15 1 0 12 empty empty empty 0 -8 0 10 -262144
-1 -1 7;
#X obj 158 249 vradio 15 1 0 12 empty empty empty 0 -8 0 10 -262144
-1 -1 0;
#X obj 247 249 vradio 15 1 0 12 empty empty empty 0 -8 0 10 -262144
-1 -1 0;
#X obj 262 249 vradio 15 1 0 12 empty empty empty 0 -8 0 10 -262144
-1 -1 4;
#X floatatom 287 518 5 0 0 0 - - -;
#X obj 209 552 +;
#X obj 158 132 select 0 1 2 3 4 5 6 7;
#X obj 158 95 mod 8;
#X msg 287 499 50, f 4;
#X msg 323 647 100;
#X obj 587 386 inlet;
#X obj 159 18 loadbang;
#X obj 624 386 inlet;
#X obj 661 386 inlet;
#X obj 698 386 inlet;
#X obj 756 611 inlet;
#X obj 157 151 inlet;
#X obj 173 171 inlet;
#X obj 187 190 inlet;
#X obj 202 229 inlet;
#X obj 217 210 inlet;
#X obj 232 190 inlet;
#X obj 247 171 inlet;
#X obj 262 151 inlet;
#X obj 188 639 square;
#X obj 555 573 adsr, f 14;
#X msg 555 552 1;
#X obj 155 660 *~;
#X obj 188 660 *~;
#X obj 125 531 vsl 15 128 0 1 0 0 empty empty squareMix 0 -9 0 10 -262144
-1 -1 0 1;
#X obj 85 531 vsl 15 128 0 1 0 0 empty empty oscMix 0 -9 0 10 -262144
-1 -1 0 1;
#X obj 125 498 inlet;
#X obj 85 498 inlet;
#X obj 469 382 inlet;
#X obj 484 439 inlet;
#X obj 317 42 inlet;
#X obj 159 56 metro 400;
#X obj 376 721 inlet;
#X obj 323 627 inlet;
#X obj 287 479 inlet;
#X text 270 464 midi offset;
#X connect 1 0 0 0;
#X connect 3 0 31 0;
#X connect 4 0 6 1;
#X connect 5 0 4 1;
#X connect 6 0 7 0;
#X connect 6 0 64 0;
#X connect 7 0 67 0;
#X connect 9 0 23 0;
#X connect 11 0 10 0;
#X connect 11 0 10 1;
#X connect 12 0 11 1;
#X connect 13 0 17 0;
#X connect 14 0 18 0;
#X connect 15 0 19 0;
#X connect 16 0 20 0;
#X connect 17 0 65 2;
#X connect 18 0 65 3;
#X connect 19 0 65 4;
#X connect 20 0 65 5;
#X connect 21 0 6 0;
#X connect 22 0 66 0;
#X connect 23 0 28 0;
#X connect 24 0 28 1;
#X connect 25 0 26 0;
#X connect 26 0 23 1;
#X connect 27 0 25 0;
#X connect 28 0 11 0;
#X connect 31 0 4 0;
#X connect 32 0 76 0;
#X connect 33 0 46 0;
#X connect 34 0 35 0;
#X connect 34 0 47 0;
#X connect 35 0 34 1;
#X connect 36 0 45 0;
#X connect 37 0 45 0;
#X connect 38 0 45 0;
#X connect 39 0 45 0;
#X connect 40 0 45 0;
#X connect 41 0 45 0;
#X connect 42 0 45 0;
#X connect 43 0 45 0;
#X connect 44 0 45 1;
#X connect 45 0 21 0;
#X connect 45 0 22 0;
#X connect 46 0 41 0;
#X connect 46 1 37 0;
#X connect 46 2 38 0;
#X connect 46 3 39 0;
#X connect 46 4 40 0;
#X connect 46 5 36 0;
#X connect 46 6 42 0;
#X connect 46 7 43 0;
#X connect 47 0 33 0;
#X connect 48 0 44 0;
#X connect 49 0 27 0;
#X connect 50 0 13 0;
#X connect 51 0 32 0;
#X connect 52 0 14 0;
#X connect 53 0 15 0;
#X connect 54 0 16 0;
#X connect 55 0 12 0;
#X connect 56 0 41 0;
#X connect 57 0 37 0;
#X connect 58 0 38 0;
#X connect 59 0 39 0;
#X connect 60 0 40 0;
#X connect 61 0 36 0;
#X connect 62 0 42 0;
#X connect 63 0 43 0;
#X connect 64 0 68 0;
#X connect 65 0 9 1;
#X connect 66 0 65 0;
#X connect 66 0 65 1;
#X connect 67 0 9 0;
#X connect 68 0 9 0;
#X connect 69 0 68 1;
#X connect 70 0 67 1;
#X connect 71 0 69 0;
#X connect 72 0 70 0;
#X connect 73 0 3 0;
#X connect 74 0 5 0;
#X connect 75 0 76 1;
#X connect 76 0 34 0;
#X connect 77 0 24 0;
#X connect 78 0 27 0;
#X connect 79 0 44 0;
