#N canvas 0 23 1070 523 10;
#X text 523 39 tempo;
#X text 86 41 oscillators;
#X text 141 110 sequencer setup;
#X text 547 336 filters;
#X text 629 158 FM;
#X text 853 240 ADSR;
#X obj 35 60 r oscMix2 @hv_param 0 1 0;
#X obj 49 79 r squareMix2 @hv_param 0 1 1;
#X obj 94 130 r seq2_0 @hv_param 0 11 0;
#X obj 108 149 r seq2_1 @hv_param 0 11 4;
#X obj 123 169 r seq2_2 @hv_param 0 11 7;
#X obj 138 189 r seq2_3 @hv_param 0 11 11;
#X obj 153 208 r seq2_4 @hv_param 0 11 7;
#X obj 167 228 r seq2_5 @hv_param 0 11 4;
#X obj 182 247 r seq2_6 @hv_param 0 11 0;
#X obj 197 267 r seq2_7 @hv_param 0 11 4;
#X obj 219 295 r midiOffset2 @hv_param 40 69 50;
#X obj 482 355 r lowPass2 @hv_param 0 100 100;
#X obj 503 375 r highPass2 @hv_param 0 2000 0;
#X obj 556 179 r freqMod2 @hv_param 0 1000 0;
#X obj 581 199 r modFactor2 @hv_param 0 1000 0;
#X obj 787 260 r attack2 @hv_param 10 1000 10;
#X obj 801 280 r decay2 @hv_param 10 1000 150;
#X obj 816 299 r sustain2 @hv_param 0 1 0.5;
#X obj 831 319 r release2 @hv_param 10 1000 150;
#X obj 843 431 r vol2 @hv_param 0 1 0.1;
#X obj 447 62 r metro @hv_param 100 1000 400;
#X obj 469 244 * 2;
#X text 416 243 for bgm;
#X text 321 27 BGM;
#X obj 35 450 Synth_Patch4, f 130;
#X connect 6 0 30 0;
#X connect 7 0 30 1;
#X connect 8 0 30 2;
#X connect 9 0 30 3;
#X connect 10 0 30 4;
#X connect 11 0 30 5;
#X connect 12 0 30 6;
#X connect 13 0 30 7;
#X connect 14 0 30 8;
#X connect 15 0 30 9;
#X connect 16 0 30 10;
#X connect 17 0 30 12;
#X connect 18 0 30 13;
#X connect 19 0 30 14;
#X connect 20 0 30 15;
#X connect 21 0 30 16;
#X connect 22 0 30 17;
#X connect 23 0 30 18;
#X connect 24 0 30 19;
#X connect 25 0 30 20;
#X connect 26 0 27 0;
#X connect 27 0 30 11;
